<?xml version="1.0" encoding="utf-8"?>
<!-- Generator: Adobe Illustrator 15.0.0, SVG Export Plug-In . SVG Version: 6.00 Build 0)  -->
<!DOCTYPE svg PUBLIC "-//W3C//DTD SVG 1.1//EN" "http://www.w3.org/Graphics/SVG/1.1/DTD/svg11.dtd">
<svg version="1.1" id="Layer_1" xmlns="http://www.w3.org/2000/svg" xmlns:xlink="http://www.w3.org/1999/xlink" x="0px" y="0px"
	 width="145.333px" height="42.334px" viewBox="0 0 145.333 42.334" enable-background="new 0 0 145.333 42.334"
	 xml:space="preserve">
<path fill="#E15A3E" d="M20.775,40.102c-10.294-0.006-18.75-8.495-18.702-18.777C2.121,11.068,10.544,2.677,20.788,2.681
	c10.247,0.006,18.667,8.405,18.703,18.655C39.526,31.624,31.066,40.106,20.775,40.102"/>
<g>
	<defs>
		<path id="SVGID_1_" d="M16.935,17.315c-0.009,0.096-0.011,0.188-0.011,0.279c0,0.004-0.001,0.005-0.001,0.008
			c-0.135,1.688-1.55,2.104-2.041,0.962c-0.013,0.011-0.024,0.021-0.037,0.03c-0.261-0.949-0.487-2.171-0.423-3.452
			c-6.656,7.741-1.964,14.965-1.964,14.965c1.626,3.43,5.119,5.801,9.166,5.801c4.725,0,8.694-3.231,9.82-7.603
			c1.375-4.634,0.554-9.84-2.681-14.765c-1.442-2.197-4.002-3.985-4.002-3.985s0.88,1.379,1.311,3.931
			c0.049,0.289,0.075,0.608,0.084,0.949c-1.504-2.699-4.626-6.538-10.648-8.055C17.139,8.691,17.274,13.512,16.935,17.315"/>
	</defs>
	<clipPath id="SVGID_2_">
		<use xlink:href="#SVGID_1_"  overflow="visible"/>
	</clipPath>
	
		<linearGradient id="SVGID_3_" gradientUnits="userSpaceOnUse" x1="-187.2886" y1="179.7881" x2="-186.9507" y2="179.7881" gradientTransform="matrix(0 -87.3748 -87.3748 0 15729.2041 -16328.4287)">
		<stop  offset="0" style="stop-color:#010101"/>
		<stop  offset="0.1343" style="stop-color:#151515"/>
		<stop  offset="0.3407" style="stop-color:#262424"/>
		<stop  offset="0.5518" style="stop-color:#302C2D"/>
		<stop  offset="0.7688" style="stop-color:#363132"/>
		<stop  offset="1" style="stop-color:#383334"/>
	</linearGradient>
	<rect x="7.767" y="6.381" clip-path="url(#SVGID_2_)" fill="url(#SVGID_3_)" width="25.053" height="29.527"/>
</g>
<g>
	<defs>
		<rect id="SVGID_4_" x="-12.062" y="-10.333" width="203.062" height="112.525"/>
	</defs>
	<clipPath id="SVGID_5_">
		<use xlink:href="#SVGID_4_"  overflow="visible"/>
	</clipPath>
	<path clip-path="url(#SVGID_5_)" fill="#FFFFFF" d="M23.221,33.045c-0.386,0.76-1.415,0.793-1.921,0H23.221z"/>
	<path clip-path="url(#SVGID_5_)" fill="#FFFFFF" d="M23.573,30.996c0,0,2.022,1.5,4.501-0.178c2.479-1.676,1.839-4.109,1.839-4.109
		s-1.642-0.74-4.029,0.873S23.573,30.996,23.573,30.996"/>
	<path clip-path="url(#SVGID_5_)" fill="#050303" d="M27.945,28.449c0,0.936-0.758,1.693-1.694,1.693
		c-0.853,0-1.558-0.629-1.676-1.449c0.32-0.369,0.74-0.754,1.292-1.129c0.404-0.271,0.786-0.477,1.143-0.629
		C27.564,27.213,27.945,27.787,27.945,28.449"/>
	<path clip-path="url(#SVGID_5_)" fill="#FFFFFF" d="M21.01,30.996c0,0-2.021,1.5-4.501-0.178c-2.479-1.676-1.839-4.109-1.839-4.109
		s1.643-0.74,4.029,0.873C21.086,29.195,21.01,30.996,21.01,30.996"/>
	<path clip-path="url(#SVGID_5_)" fill="#050303" d="M16.638,28.449c0,0.936,0.759,1.693,1.695,1.693
		c0.853,0,1.558-0.629,1.676-1.449c-0.321-0.369-0.739-0.754-1.292-1.129c-0.404-0.271-0.785-0.477-1.143-0.629
		C17.02,27.213,16.638,27.787,16.638,28.449"/>
</g>
<path fill="#FCFAFB" d="M57.493,29.53c0,0.665-0.546,1.188-1.187,1.188h-8.19h-0.047h-0.047c-0.665,0-1.187-0.523-1.187-1.188
	V15.336c0-0.665,0.522-1.188,1.187-1.188h0.047h0.047h8.19c0.641,0,1.187,0.522,1.187,1.188c0,0.664-0.546,1.188-1.187,1.188h-7.098
	v4.77h5.413c0.641,0,1.187,0.523,1.187,1.188c0,0.664-0.545,1.188-1.187,1.188h-5.413v4.676h7.098
	C56.947,28.345,57.493,28.866,57.493,29.53"/>
<path fill="#FCFAFB" d="M69.458,15.24v10.588v0.023c-0.024,2.637-2.184,4.771-4.819,4.771c-2.634,0-4.724-2.183-4.795-4.604
	c0-0.664,0.522-1.14,1.164-1.14c0.641,0,1.186,0.476,1.186,1.14c0,1.14,1.092,2.256,2.445,2.256c1.354,0,2.468-1.116,2.468-2.471
	V15.24c0-0.641,0.523-1.162,1.164-1.162C68.935,14.078,69.458,14.6,69.458,15.24"/>
<path fill="#FCFAFB" d="M72.803,24.783v-9.305c0-0.666,0.522-1.186,1.164-1.186c0.665,0,1.186,0.521,1.186,1.186v9.305
	c0,1.995,1.615,3.608,3.609,3.608c1.995,0,3.608-1.613,3.608-3.608v-9.305c0-0.666,0.522-1.186,1.163-1.186
	c0.665,0,1.187,0.521,1.187,1.186v9.305c0,3.299-2.683,5.959-5.958,5.959C75.486,30.742,72.803,28.082,72.803,24.783"/>
<path fill="#FCFAFB" d="M99.698,30.599c-0.19,0.144-0.427,0.189-0.64,0.189c-0.38,0-0.76-0.189-0.998-0.545l-7.762-11.157v10.539
	c0,0.642-0.522,1.163-1.164,1.163c-0.64,0-1.186-0.521-1.186-1.163V15.359c-0.048-0.451,0.143-0.902,0.546-1.163
	c0.546-0.356,1.281-0.213,1.637,0.356l7.738,11.488V15.192c0-0.663,0.547-1.186,1.188-1.186c0.64,0,1.163,0.522,1.163,1.186v14.244
	C100.292,29.886,100.102,30.338,99.698,30.599"/>
<path fill="#FCFAFB" d="M114.202,30.553c-0.215,0.166-0.476,0.261-0.736,0.261c-0.334,0-0.664-0.144-0.902-0.429l-5.222-6.858
	l-1.472,1.543v4.556c0,0.667-0.522,1.188-1.187,1.188c-0.641,0-1.163-0.521-1.163-1.188V15.266c0-0.666,0.521-1.188,1.163-1.188
	c0.666,0,1.187,0.521,1.187,1.188v6.434l6.576-7.027c0.379-0.523,1.115-0.617,1.637-0.214c0.523,0.379,0.618,1.117,0.215,1.638
	l-5.318,5.721l5.389,7.075C114.795,29.39,114.724,30.124,114.202,30.553"/>
<path fill="#FCFAFB" d="M118.022,29.579V15.24c0-0.641,0.521-1.162,1.188-1.162c0.64,0,1.161,0.521,1.161,1.162v14.339
	c0,0.664-0.521,1.186-1.161,1.186C118.544,30.765,118.022,30.243,118.022,29.579"/>
<path fill="#FCFAFB" d="M134.377,29.53c0,0.665-0.544,1.188-1.186,1.188H125h-0.046h-0.048c-0.665,0-1.187-0.523-1.187-1.188V15.336
	c0-0.665,0.521-1.188,1.187-1.188h0.048H125h8.191c0.642,0,1.186,0.522,1.186,1.188c0,0.664-0.544,1.188-1.186,1.188h-7.098v4.77
	h5.412c0.641,0,1.188,0.523,1.188,1.188c0,0.664-0.547,1.188-1.188,1.188h-5.412v4.676h7.098
	C133.833,28.345,134.377,28.866,134.377,29.53"/>
</svg>
